# Blender 4.5.3 LTS
# www.blender.org
mtllib dumbbell.mtl
o dumbbell
v 0.017321 -0.060000 0.029700
v -0.017321 -0.060000 0.029700
v 0.017321 -0.090000 0.029700
v -0.017321 -0.090000 0.029700
v 0.034641 -0.060000 -0.000300
v 0.017321 -0.060000 0.029700
v 0.034641 -0.090000 -0.000300
v 0.017321 -0.090000 0.029700
v 0.017321 -0.060000 -0.030300
v 0.034641 -0.060000 -0.000300
v 0.017321 -0.090000 -0.030300
v 0.034641 -0.090000 -0.000300
v -0.017321 -0.060000 -0.030300
v 0.017321 -0.060000 -0.030300
v -0.017321 -0.090000 -0.030300
v 0.017321 -0.090000 -0.030300
v -0.034641 -0.060000 -0.000300
v -0.017321 -0.060000 -0.030300
v -0.034641 -0.090000 -0.000300
v -0.017321 -0.090000 -0.030300
v -0.017321 -0.060000 0.029700
v -0.034641 -0.060000 -0.000300
v -0.017321 -0.090000 0.029700
v -0.034641 -0.090000 -0.000300
v -0.034641 -0.060000 -0.000300
v -0.012500 -0.060000 -0.007517
v -0.017321 -0.060000 -0.030300
v 0.000000 -0.060000 -0.014734
v 0.017321 -0.060000 -0.030300
v 0.012500 -0.060000 -0.007517
v 0.034641 -0.060000 -0.000300
v 0.012500 -0.060000 0.006917
v 0.017321 -0.060000 0.029700
v 0.000000 -0.060000 0.014134
v -0.017321 -0.060000 0.029700
v -0.012500 -0.060000 0.006917
v -0.034641 -0.060000 -0.000300
v -0.012500 -0.060000 -0.007517
v -0.017321 -0.090000 -0.030300
v 0.017321 -0.090000 -0.030300
v -0.034641 -0.090000 -0.000300
v 0.034641 -0.090000 -0.000300
v -0.017321 -0.090000 0.029700
v 0.017321 -0.090000 0.029700
v 0.000000 0.060000 -0.014734
v 0.012500 0.060000 -0.007517
v 0.000000 -0.060000 -0.014734
v 0.012500 -0.060000 -0.007517
v -0.012500 0.060000 -0.007517
v 0.000000 0.060000 -0.014734
v -0.012500 -0.060000 -0.007517
v 0.000000 -0.060000 -0.014734
v -0.012500 0.060000 0.006917
v -0.012500 0.060000 -0.007517
v -0.012500 -0.060000 0.006917
v -0.012500 -0.060000 -0.007517
v 0.000000 0.060000 0.014134
v -0.012500 0.060000 0.006917
v 0.000000 -0.060000 0.014134
v -0.012500 -0.060000 0.006917
v 0.012500 0.060000 0.006917
v 0.000000 0.060000 0.014134
v 0.012500 -0.060000 0.006917
v 0.000000 -0.060000 0.014134
v 0.012500 0.060000 -0.007517
v 0.012500 0.060000 0.006917
v 0.012500 -0.060000 -0.007517
v 0.012500 -0.060000 0.006917
v -0.017321 0.060000 0.029700
v 0.017321 0.060000 0.029700
v -0.017321 0.090000 0.029700
v 0.017321 0.090000 0.029700
v 0.017321 0.060000 0.029700
v 0.034641 0.060000 -0.000300
v 0.017321 0.090000 0.029700
v 0.034641 0.090000 -0.000300
v 0.034641 0.060000 -0.000300
v 0.017321 0.060000 -0.030300
v 0.034641 0.090000 -0.000300
v 0.017321 0.090000 -0.030300
v 0.017321 0.060000 -0.030300
v -0.017321 0.060000 -0.030300
v 0.017321 0.090000 -0.030300
v -0.017321 0.090000 -0.030300
v -0.017321 0.060000 -0.030300
v -0.034641 0.060000 -0.000300
v -0.017321 0.090000 -0.030300
v -0.034641 0.090000 -0.000300
v -0.034641 0.060000 -0.000300
v -0.017321 0.060000 0.029700
v -0.034641 0.090000 -0.000300
v -0.017321 0.090000 0.029700
v 0.000000 0.060000 -0.014734
v 0.017321 0.060000 -0.030300
v 0.012500 0.060000 -0.007517
v 0.034641 0.060000 -0.000300
v 0.012500 0.060000 0.006917
v 0.017321 0.060000 0.029700
v 0.000000 0.060000 0.014134
v -0.017321 0.060000 0.029700
v -0.012500 0.060000 0.006917
v -0.034641 0.060000 -0.000300
v -0.012500 0.060000 -0.007517
v -0.017321 0.060000 -0.030300
v 0.000000 0.060000 -0.014734
v 0.017321 0.060000 -0.030300
v 0.034641 0.090000 -0.000300
v 0.017321 0.090000 -0.030300
v 0.017321 0.090000 0.029700
v -0.017321 0.090000 -0.030300
v -0.017321 0.090000 0.029700
v -0.034641 0.090000 -0.000300
vn -0.0000 -0.0000 1.0000
vn 0.8660 -0.0000 0.5000
vn 0.8660 -0.0000 -0.5000
vn -0.0000 -0.0000 -1.0000
vn -0.8660 -0.0000 -0.5000
vn -0.8660 -0.0000 0.5000
vn -0.0000 1.0000 -0.0000
vn -0.0000 -1.0000 -0.0000
vn 0.5000 -0.0000 -0.8660
vn -0.5000 -0.0000 -0.8660
vn -1.0000 -0.0000 -0.0000
vn -0.5000 -0.0000 0.8660
vn 0.5000 -0.0000 0.8660
vn 1.0000 -0.0000 -0.0000
vt 0.403775 0.833333
vt 0.596225 0.833333
vt 0.403775 1.000000
vt 0.596225 1.000000
vt 0.833333 0.500000
vt 0.833333 0.333333
vt 1.000000 0.500000
vt 1.000000 0.333333
vt 0.833333 0.666667
vt 1.000000 0.666667
vt 0.166667 0.500000
vt 0.166667 0.666667
vt 0.000000 0.500000
vt 0.000000 0.666667
vt 0.166667 0.333333
vt 0.000000 0.333333
vt 0.307550 0.500000
vt 0.430556 0.540094
vt 0.403775 0.666667
vt 0.500000 0.580188
vt 0.596225 0.666667
vt 0.569444 0.540094
vt 0.692450 0.500000
vt 0.569444 0.459906
vt 0.596225 0.333333
vt 0.500000 0.419812
vt 0.403775 0.333333
vt 0.430556 0.459906
vt 0.500000 0.166667
vt 0.569444 0.166667
vt 0.500000 0.833333
vt 0.569444 0.833333
vt 0.430556 0.166667
vt 0.430556 0.833333
vt 0.833333 0.459906
vt 0.833333 0.540094
vt 0.166667 0.459906
vt 0.166667 0.540094
vt 0.833333 0.540094
vt 0.833333 0.459906
vt 0.596225 0.166667
vt 0.403775 0.166667
vt 0.596225 0.000000
vt 0.403775 0.000000
vt 0.833333 0.666667
vt 0.833333 0.500000
vt 0.833333 0.333333
s 1
usemtl color
f 1/1/1 2/2/1 3/3/1
f 2/2/1 4/4/1 3/3/1
f 5/5/2 6/6/2 7/7/2
f 6/6/2 8/8/2 7/7/2
f 9/9/3 10/5/3 11/10/3
f 10/5/3 12/7/3 11/10/3
f 13/1/4 14/2/4 15/3/4
f 14/2/4 16/4/4 15/3/4
f 17/11/5 18/12/5 19/13/5
f 18/12/5 20/14/5 19/13/5
f 21/15/6 22/11/6 23/16/6
f 22/11/6 24/13/6 23/16/6
f 25/17/7 26/18/7 27/19/7
f 26/18/7 28/20/7 27/19/7
f 27/19/7 28/20/7 29/21/7
f 28/20/7 30/22/7 29/21/7
f 29/21/7 30/22/7 31/23/7
f 30/22/7 32/24/7 31/23/7
f 31/23/7 32/24/7 33/25/7
f 32/24/7 34/26/7 33/25/7
f 33/25/7 34/26/7 35/27/7
f 34/26/7 36/28/7 35/27/7
f 35/27/7 36/28/7 37/17/7
f 36/28/7 38/18/7 37/17/7
f 39/21/8 40/19/8 41/23/8
f 40/19/8 42/17/8 41/23/8
f 41/23/8 42/17/8 43/25/8
f 42/17/8 44/27/8 43/25/8
f 45/29/9 46/30/9 47/31/9
f 46/30/9 48/32/9 47/31/9
f 49/33/10 50/29/10 51/34/10
f 50/29/10 52/31/10 51/34/10
f 53/35/11 54/36/11 55/37/11
f 54/36/11 56/38/11 55/37/11
f 57/29/12 58/30/12 59/31/12
f 58/30/12 60/32/12 59/31/12
f 61/33/13 62/29/13 63/34/13
f 62/29/13 64/31/13 63/34/13
f 65/38/14 66/37/14 67/39/14
f 66/37/14 68/40/14 67/39/14
f 69/41/1 70/42/1 71/43/1
f 70/42/1 72/44/1 71/43/1
f 73/15/2 74/11/2 75/16/2
f 74/11/2 76/13/2 75/16/2
f 77/11/3 78/12/3 79/13/3
f 78/12/3 80/14/3 79/13/3
f 81/41/4 82/42/4 83/43/4
f 82/42/4 84/44/4 83/43/4
f 85/45/5 86/46/5 87/10/5
f 86/46/5 88/7/5 87/10/5
f 89/46/6 90/47/6 91/7/6
f 90/47/6 92/8/6 91/7/6
f 93/20/8 94/19/8 95/18/8
f 94/19/8 96/17/8 95/18/8
f 95/18/8 96/17/8 97/28/8
f 96/17/8 98/27/8 97/28/8
f 97/28/8 98/27/8 99/26/8
f 98/27/8 100/25/8 99/26/8
f 99/26/8 100/25/8 101/24/8
f 100/25/8 102/23/8 101/24/8
f 101/24/8 102/23/8 103/22/8
f 102/23/8 104/21/8 103/22/8
f 103/22/8 104/21/8 105/20/8
f 104/21/8 106/19/8 105/20/8
f 107/23/7 108/21/7 109/25/7
f 108/21/7 110/19/7 109/25/7
f 109/25/7 110/19/7 111/27/7
f 110/19/7 112/17/7 111/27/7
